<svg width="512" height="512" viewBox="0 0 100 100" xmlns="http://www.w3.org/2000/svg">
  <rect x="0" y="0" width="100" height="100" rx="20" ry="20" fill="#f0f2f5" />

  <circle cx="50" cy="50" r="40" fill="#ffffff" stroke="#d1d5db" stroke-width="0.5" />

  <circle cx="50" cy="50" r="28" fill="#20B2AA" />

  <g stroke="#008B8B" stroke-width="0.8" opacity="0.5">
    <line x1="50" y1="22" x2="50" y2="35" transform="rotate(0 50 50)" />
    <line x1="50" y1="22" x2="50" y2="35" transform="rotate(30 50 50)" />
    <line x1="50" y1="22" x2="50" y2="35" transform="rotate(60 50 50)" />
    <line x1="50" y1="22" x2="50" y2="35" transform="rotate(90 50 50)" />
    <line x1="50" y1="22" x2="50" y2="35" transform="rotate(120 50 50)" />
    <line x1="50" y1="22" x2="50" y2="35" transform="rotate(150 50 50)" />
    <line x1="50" y1="22" x2="50" y2="35" transform="rotate(180 50 50)" />
    <line x1="50" y1="22" x2="50" y2="35" transform="rotate(210 50 50)" />
    <line x1="50" y1="22" x2="50" y2="35" transform="rotate(240 50 50)" />
    <line x1="50" y1="22" x2="50" y2="35" transform="rotate(270 50 50)" />
    <line x1="50" y1="22" x2="50" y2="35" transform="rotate(300 50 50)" />
    <line x1="50" y1="22" x2="50" y2="35" transform="rotate(330 50 50)" />
  </g>

  <circle cx="50" cy="50" r="12" fill="#1a1a1a" />

  <circle cx="44" cy="44" r="4" fill="white" opacity="0.6" />
</svg>
